<?xml version="1.0" encoding="utf-8"?>
<!-- Generator: Adobe Illustrator 17.0.0, SVG Export Plug-In . SVG Version: 6.00 Build 0)  -->
<!DOCTYPE svg PUBLIC "-//W3C//DTD SVG 1.1//EN" "http://www.w3.org/Graphics/SVG/1.1/DTD/svg11.dtd">
<svg version="1.1" id="Capa_1" xmlns="http://www.w3.org/2000/svg" xmlns:xlink="http://www.w3.org/1999/xlink" x="0px" y="0px"
	 width="63px" height="107px" viewBox="0 0 63 107" enable-background="new 0 0 63 107" xml:space="preserve">
<ellipse transform="matrix(-0.2965 -0.955 0.955 -0.2965 54.0919 74.5916)" fill="#631638" cx="54.517" cy="17.374" rx="4.915" ry="8.656"/>
<ellipse transform="matrix(-0.8807 -0.4736 0.4736 -0.8807 83.0927 36.3404)" fill="#631638" cx="46.122" cy="7.708" rx="4.915" ry="8.656"/>
<ellipse transform="matrix(-0.6619 0.7496 -0.7496 -0.6619 63.927 108.912)" fill="#343675" cx="7.402" cy="68.873" rx="4.763" ry="8.945"/>
<path fill="none" stroke="#343675" stroke-width="4" stroke-miterlimit="10" d="M40.362,21.431
	c-15.13,9.382-25.206,26.141-25.206,45.252c0,15.337,6.489,29.159,16.871,38.869"/>
<ellipse transform="matrix(-0.9322 0.3618 -0.3618 -0.9322 45.09 65.101)" fill="#343675" cx="16.45" cy="36.772" rx="4.461" ry="8.377"/>
<ellipse transform="matrix(0.0868 0.9962 -0.9962 0.0868 80.2389 29.6271)" fill="#343675" cx="23.959" cy="58.582" rx="4.763" ry="8.945"/>
<ellipse transform="matrix(-0.2834 0.959 -0.959 -0.2834 75.3368 6.5641)" fill="#343675" cx="35.216" cy="31.428" rx="3.225" ry="6.714"/>
<ellipse fill="#7C183F" cx="40.362" cy="10.583" rx="5.76" ry="10.848"/>
<ellipse transform="matrix(-0.7059 -0.7083 0.7083 -0.7059 71.161 58.0053)" fill="#7C183F" cx="47.622" cy="14.23" rx="5.76" ry="10.848"/>
<ellipse transform="matrix(0.1401 -0.9901 0.9901 0.1401 21.5147 67.6365)" fill="#7C183F" cx="49.699" cy="21.431" rx="5.76" ry="10.848"/>
</svg>
